<svg width="164" height="164" viewBox="0 0 164 164" fill="none" xmlns="http://www.w3.org/2000/svg">
<path fill-rule="evenodd" clip-rule="evenodd" d="M119.743 158.818C116.901 161.66 113.046 163.257 109.026 163.257L54.2311 163.257C50.2117 163.257 46.3568 161.66 43.5146 158.818L34.8759 150.179C32.0338 147.337 30.437 143.482 30.437 139.463L30.4374 132.82H23.7941C19.7746 132.82 15.9198 131.224 13.0776 128.382L4.43894 119.743C1.5968 116.901 -1.49498e-05 113.046 1.04973e-10 109.026L0.000418596 54.2311C0.000455971 50.2117 1.59729 46.3568 4.43937 43.5146L13.078 34.8759C15.9202 32.0338 19.775 30.437 23.7945 30.437L30.437 30.437L30.4366 23.7941C30.4366 19.7746 32.0334 15.9198 34.8755 13.0776L43.5142 4.43895C46.3564 1.59681 50.2112 -1.86872e-05 54.2306 1.64018e-10L109.026 0.000417428C113.045 0.000452233 116.9 1.59729 119.742 4.43937L128.381 13.078C131.223 15.9202 132.82 19.775 132.82 23.7945L132.82 30.4366L139.463 30.4366C143.482 30.4366 147.337 32.0334 150.179 34.8755L158.818 43.5142C161.66 46.3564 163.257 50.2112 163.257 54.2306L163.257 109.026C163.257 113.045 161.66 116.9 158.818 119.742L150.179 128.381C147.337 131.223 143.482 132.82 139.463 132.82H132.821L132.82 139.463C132.82 143.482 131.224 147.337 128.382 150.179L119.743 158.818ZM126.317 119.988C126.317 116.159 127.838 112.486 130.546 109.779L148.886 91.4381C151.488 88.8364 152.949 85.3079 152.949 81.6285C152.949 77.9491 151.488 74.4203 148.886 71.8185L130.546 53.4788C127.838 50.7709 126.317 47.0979 126.317 43.2684L126.318 36.9402H119.988C116.159 36.9401 112.486 35.4191 109.779 32.7114L91.4381 14.3709C88.8364 11.7692 85.3079 10.3076 81.6285 10.3076C77.9491 10.3076 74.4199 11.7691 71.8182 14.3709L53.4784 32.7106C50.7706 35.4184 47.0979 36.9398 43.2684 36.9398H36.9406L36.9402 43.2688C36.9401 47.0981 35.4191 50.7706 32.7114 53.4784L14.3709 71.8189C11.7692 74.4206 10.3077 77.9492 10.3076 81.6285C10.3076 85.3079 11.7695 88.8368 14.3713 91.4385L32.711 109.778C35.4189 112.486 36.9398 116.159 36.9398 119.989L36.9402 126.317H43.2688C47.0981 126.317 50.7706 127.838 53.4784 130.546L71.819 148.886C74.4206 151.488 77.9492 152.949 81.6285 152.949C85.3079 152.949 88.8368 151.488 91.4385 148.886L109.778 130.546C112.486 127.838 116.159 126.317 119.989 126.317L126.317 126.317L126.317 119.988Z" fill="black"/>
</svg>
