<svg width="368" height="169" viewBox="0 0 368 169" fill="none" xmlns="http://www.w3.org/2000/svg">
<path d="M323.664 168.721C290.623 168.721 280.312 129.353 281.249 88.8129C282.421 40.5399 305.151 0 341.239 0C348.503 0.937327 356.002 2.57768 363.032 4.68669L361.626 8.90472C319.914 4.45236 305.62 30.4635 302.808 80.1425C309.838 76.1588 320.383 71.4721 329.522 68.8944C357.877 67.4884 367.953 90.6876 367.484 112.715C366.313 146.459 347.8 168.721 323.664 168.721ZM323.664 162.863C339.833 162.863 347.332 140.132 347.566 119.745C348.269 98.1863 342.411 78.9708 321.086 78.9708C314.29 80.1425 307.26 82.7202 302.574 85.2979C302.339 90.2189 302.105 100.295 302.105 111.543C302.574 134.274 305.151 162.863 323.664 162.863Z" fill="black"/>
<path d="M183.539 165.909V159.582C210.488 135.914 243.763 96.7803 243.763 49.2103C243.763 29.5262 237.436 16.4034 220.564 16.4034C208.144 16.4034 198.536 24.3708 190.803 34.4472L188.226 31.1665C191.975 24.1365 198.536 14.5288 203.692 7.96738C210.488 2.57768 218.689 0 228.531 0C249.387 0 263.682 16.1691 263.682 45.2266C263.682 69.3631 251.496 91.8592 237.202 109.669C225.016 124.9 215.409 136.149 203.458 147.631H236.733C258.058 147.631 262.51 141.304 268.368 122.791H271.649C271.649 122.791 270.009 136.149 268.837 143.179C267.431 152.552 265.791 161.925 261.807 165.909C246.341 165.44 236.967 165.206 221.736 165.206C205.801 165.206 199.474 165.44 183.539 165.909Z" fill="black"/>
<path d="M138.688 168.721C111.505 168.721 94.1641 132.399 94.1641 84.1262C94.1641 35.8532 111.505 0 138.688 0C165.871 0 183.211 36.0876 183.211 84.1262C183.211 132.399 165.871 168.721 138.688 168.721ZM138.688 162.863C155.325 162.863 161.184 133.336 161.184 84.1262C161.184 34.9159 155.325 5.62403 138.688 5.62403C121.816 5.62403 115.957 34.9159 115.957 84.1262C115.957 133.336 121.816 162.863 138.688 162.863Z" fill="black"/>
<path d="M0 165.909V159.582C26.9485 135.914 60.224 96.7803 60.224 49.2103C60.224 29.5262 53.897 16.4034 37.0249 16.4034C24.6052 16.4034 14.9974 24.3708 7.26438 34.4472L4.6867 31.1665C8.43605 24.1365 14.9974 14.5288 20.1528 7.96738C26.9485 2.57768 35.1502 0 44.9923 0C65.8481 0 80.1425 16.1691 80.1425 45.2266C80.1425 69.3631 67.9571 91.8592 53.6627 109.669C41.4773 124.9 31.8695 136.149 19.9185 147.631H53.194C74.5185 147.631 78.9708 141.304 84.8292 122.791H88.1099C88.1099 122.791 86.4695 136.149 85.2979 143.179C83.8919 152.552 82.2515 161.925 78.2678 165.909C62.8017 165.44 53.4283 165.206 38.1966 165.206C22.2618 165.206 15.9348 165.44 0 165.909Z" fill="black"/>
</svg>
