<svg width="389" height="286" viewBox="0 0 389 286" fill="none" xmlns="http://www.w3.org/2000/svg">
<path d="M21.1189 57.1196C18.3989 46.6396 11.9189 23.6796 8.79891 13.1196C6.63891 5.75965 5.67891 2.87964 0.878906 2.31965V0.959645C3.75891 1.11965 5.67891 1.19965 9.27891 1.19965C12.7189 1.19965 16.0789 1.11965 19.5989 0.959645V2.31965C15.6789 2.71965 13.9189 5.43964 15.1989 10.3196C18.7189 23.7596 21.7589 34.4796 24.3189 42.9596C27.4389 33.6796 30.5589 23.9996 33.4389 14.7196C31.1189 6.15965 29.9189 3.03965 25.3589 2.31965V0.959645C28.5589 1.19965 31.1989 1.19965 33.9989 1.19965C37.0389 1.19965 39.8389 1.11965 43.3589 0.959645V2.31965C38.5589 2.79965 37.9989 5.51964 39.2789 10.3196C43.0389 24.0796 45.9189 34.5596 48.3989 42.7196C50.7989 35.1996 53.1989 26.9596 56.7189 12.8796C58.5589 5.59965 57.4389 2.79965 52.0789 2.31965V0.959645C54.2389 1.11965 57.1989 1.19965 60.1589 1.19965C62.8789 1.19965 64.8789 1.19965 67.5189 0.959645V2.31965C63.9989 2.87964 62.7989 4.63965 60.7189 11.0396C56.3989 24.5596 49.9189 45.5996 47.0389 56.7196L45.2789 57.1196C43.0389 48.3196 39.1189 34.3996 34.6389 18.7996C31.5989 27.9196 25.6789 46.5596 22.8789 56.7196L21.1189 57.1196ZM84.3164 57.5996C73.5964 57.5996 65.5164 45.9996 65.5164 28.7196C65.5164 11.4396 73.5964 -0.000351906 84.3164 -0.000351906C95.0364 -0.000351906 103.196 11.5196 103.196 28.7196C103.196 45.9996 95.0364 57.5996 84.3164 57.5996ZM84.3164 55.5196C91.7564 55.5196 95.1164 45.5196 95.1164 28.7196C95.1164 11.9196 91.7564 2.07965 84.3164 2.07965C76.8764 2.07965 73.5964 11.9196 73.5964 28.7196C73.5964 45.5196 76.8764 55.5196 84.3164 55.5196ZM146.398 57.0396C140.958 57.0396 137.918 54.9596 135.358 51.9196C133.598 49.8396 131.518 46.0796 129.438 41.9196C127.358 37.5996 126.318 34.9596 124.798 31.0396C122.798 31.0396 121.038 30.9596 119.118 30.6396V45.0396C119.118 54.1596 120.958 55.0396 125.198 55.2796V56.6396C122.398 56.4796 118.798 56.3996 115.438 56.3996C112.238 56.3996 109.118 56.4796 105.998 56.6396V55.2796C110.638 54.9596 112.078 53.6796 112.078 44.9596V12.6396C112.078 4.23965 110.958 2.63965 105.998 2.31965V0.959645H123.118C133.038 0.959645 141.358 4.79965 140.718 16.2396C140.398 21.9996 136.798 26.5596 131.118 28.7996C132.798 32.9596 134.718 37.5196 137.838 42.9596C143.438 52.7996 147.438 54.9596 151.598 55.2796V56.6396C150.078 56.9596 147.998 57.0396 146.398 57.0396ZM119.118 29.2796C127.838 29.4396 133.358 25.8396 133.358 16.2396C133.358 8.15965 129.758 2.63965 119.198 2.71965C119.118 6.15965 119.118 8.31965 119.118 11.8396V29.2796ZM149.788 56.6396V55.2796C154.428 54.9596 155.868 53.6796 155.868 44.9596V12.6396C155.868 4.23965 154.748 2.63965 149.788 2.31965V0.959645C152.908 1.11965 155.868 1.19965 158.988 1.19965C162.348 1.19965 166.108 1.11965 169.388 0.959645V2.31965C164.588 2.71965 162.908 4.23965 162.908 12.6396V43.5996C162.908 53.1996 163.468 54.1596 169.228 54.1596C175.548 54.1596 179.308 49.8396 181.308 41.0396H182.828L182.428 49.9996C182.188 54.2396 181.628 55.6796 180.668 56.6396C174.348 56.4796 174.668 56.3996 168.348 56.3996C160.588 56.3996 157.468 56.3196 149.788 56.6396ZM184.048 56.6396V55.2796C188.688 54.9596 190.128 53.6796 190.128 44.9596V12.6396C190.128 4.23965 189.008 2.63965 184.048 2.31965V0.959645H200.048C202.768 0.959645 206.288 1.35964 208.688 2.23965C217.008 5.35965 223.408 13.8396 223.408 28.5596C223.408 43.4396 217.008 51.3596 210.848 54.5596C208.288 55.9196 205.328 56.6396 200.848 56.6396H184.048ZM203.248 54.7196C210.128 54.4796 215.488 44.5596 215.488 29.1996C215.488 17.8396 213.248 9.51964 208.768 5.75965C206.048 3.43965 203.008 2.71965 197.248 2.71965C197.168 5.03965 197.168 5.83964 197.168 10.2396V45.0396C197.168 53.2796 198.288 54.8796 203.248 54.7196ZM21.1189 133.12C18.3989 122.64 11.9189 99.6796 8.79891 89.1196C6.63891 81.7596 5.67891 78.8796 0.878906 78.3196V76.9596C3.75891 77.1196 5.67891 77.1996 9.27891 77.1996C12.7189 77.1996 16.0789 77.1196 19.5989 76.9596V78.3196C15.6789 78.7196 13.9189 81.4396 15.1989 86.3196C18.7189 99.7596 21.7589 110.48 24.3189 118.96C27.4389 109.68 30.5589 99.9996 33.4389 90.7196C31.1189 82.1596 29.9189 79.0396 25.3589 78.3196V76.9596C28.5589 77.1996 31.1989 77.1996 33.9989 77.1996C37.0389 77.1996 39.8389 77.1196 43.3589 76.9596V78.3196C38.5589 78.7996 37.9989 81.5196 39.2789 86.3196C43.0389 100.08 45.9189 110.56 48.3989 118.72C50.7989 111.2 53.1989 102.96 56.7189 88.8796C58.5589 81.5996 57.4389 78.7996 52.0789 78.3196V76.9596C54.2389 77.1196 57.1989 77.1996 60.1589 77.1996C62.8789 77.1996 64.8789 77.1996 67.5189 76.9596V78.3196C63.9989 78.8796 62.7989 80.6396 60.7189 87.0396C56.3989 100.56 49.9189 121.6 47.0389 132.72L45.2789 133.12C43.0389 124.32 39.1189 110.4 34.6389 94.7996C31.5989 103.92 25.6789 122.56 22.8789 132.72L21.1189 133.12ZM67.9195 132.64V131.28C72.5595 130.96 73.9995 129.68 73.9995 120.96V88.6396C73.9995 80.2396 72.8795 78.6396 67.9195 78.3196V76.9596C71.0395 77.1196 73.9995 77.1996 77.1195 77.1996C80.4795 77.1996 83.8395 77.1196 87.1195 76.9596V78.3196C82.3195 78.7196 81.0395 80.2396 81.0395 88.6396V121.04C81.0395 130.16 82.8795 131.04 87.1195 131.28V132.64C84.3195 132.48 80.7195 132.4 77.3595 132.4C74.1595 132.4 71.0395 132.48 67.9195 132.64ZM89.1227 132.64V131.28C93.7627 130.96 95.2027 129.68 95.2027 120.96V88.6396C95.2027 80.2396 94.0827 78.6396 89.1227 78.3196V76.9596H105.123C107.843 76.9596 111.363 77.3596 113.763 78.2396C122.083 81.3596 128.483 89.8396 128.483 104.56C128.483 119.44 122.083 127.36 115.923 130.56C113.363 131.92 110.403 132.64 105.923 132.64H89.1227ZM108.323 130.72C115.203 130.48 120.563 120.56 120.563 105.2C120.563 93.8396 118.323 85.5196 113.843 81.7596C111.123 79.4396 108.083 78.7196 102.323 78.7196C102.243 81.0396 102.243 81.8396 102.243 86.2396V121.04C102.243 129.28 103.363 130.88 108.323 130.72ZM131.273 132.64V131.28C135.913 130.96 137.353 129.68 137.353 120.96V88.6396C137.353 80.2396 136.233 78.6396 131.273 78.3196V76.9596C134.313 77.1196 140.793 77.1996 147.753 77.1996C152.393 77.1996 157.033 77.1196 161.673 76.9596C162.553 78.3996 162.633 81.3596 162.553 84.3196L162.393 90.7196H160.953C159.593 81.4396 157.833 79.0396 144.553 79.0396C144.473 80.0796 144.393 83.5996 144.393 86.3196V102.8H147.033C155.673 102.8 157.113 101.52 157.913 96.0796H159.273V112.96H157.833C157.273 106.24 155.833 104.96 147.113 104.96H144.393V121.28C144.393 129.84 145.513 130.16 152.313 130.16C159.673 130.16 162.953 124.8 164.393 117.04H165.913L165.513 126C165.353 129.76 164.873 131.44 163.833 132.64C159.033 132.48 153.993 132.4 149.273 132.4C142.393 132.4 135.913 132.48 131.273 132.64ZM320.926 132.64V131.28C325.246 130.64 326.766 127.92 328.846 122.48C334.366 107.68 345.246 76.3196 345.246 76.3196L347.006 75.9196C351.166 90.7996 355.406 106 359.566 120.32C361.726 127.84 362.606 130.56 367.246 131.28V132.64C364.286 132.48 361.406 132.4 357.646 132.4C353.166 132.4 351.566 132.48 348.686 132.64V131.28C354.126 130.8 354.206 128.8 352.846 123.12C351.726 118.48 350.686 114.56 349.726 110.96H335.966C335.966 110.96 334.046 116.88 332.926 120.56C330.446 128.8 331.006 131.04 337.006 131.28V132.64C334.926 132.56 333.326 132.4 329.406 132.4C325.806 132.4 322.926 132.48 320.926 132.64ZM336.766 108.72H349.166C347.246 101.68 345.486 95.5996 343.406 88.5596L336.766 108.72ZM369.276 132.64V131.28C373.916 130.96 375.356 129.68 375.356 120.96V88.6396C375.356 80.2396 374.236 78.6396 369.276 78.3196V76.9596C372.396 77.1196 375.356 77.1996 378.476 77.1996C381.836 77.1996 385.196 77.1196 388.476 76.9596V78.3196C383.676 78.7196 382.396 80.2396 382.396 88.6396V121.04C382.396 130.16 384.236 131.04 388.476 131.28V132.64C385.676 132.48 382.076 132.4 378.716 132.4C375.516 132.4 372.396 132.48 369.276 132.64ZM22.7189 209.6C11.6789 209.6 3.67891 199.52 3.67891 180.8C3.67891 162 12.0789 152 22.5589 152C26.0789 152 29.9189 152.48 33.4389 155.12C34.7189 157.36 34.7189 161.2 34.6389 164.16L34.4789 170.24H32.9589C32.2389 161.44 29.4389 154 22.4789 154C13.6789 154 11.7589 164.72 11.7589 180.24C11.7589 196.72 13.5989 207.44 22.8789 207.44C29.4389 207.44 32.2389 201.84 33.5989 193.44H35.1189L34.8789 198C34.6389 202.24 34.2389 204.4 33.3589 206.72C30.5589 208.48 27.2789 209.6 22.7189 209.6ZM57.5977 209.6C46.8777 209.6 38.7977 198 38.7977 180.72C38.7977 163.44 46.8777 152 57.5977 152C68.3177 152 76.4777 163.52 76.4777 180.72C76.4777 198 68.3177 209.6 57.5977 209.6ZM57.5977 207.52C65.0377 207.52 68.3977 197.52 68.3977 180.72C68.3977 163.92 65.0377 154.08 57.5977 154.08C50.1577 154.08 46.8777 163.92 46.8777 180.72C46.8777 197.52 50.1577 207.52 57.5977 207.52ZM116.079 209.28L114.639 208.96C105.679 193.44 96.7189 177.84 87.5989 162.32C87.5989 175.76 87.5989 183.92 87.8389 196.8C88.0789 205.12 89.0389 206.96 94.1589 207.28V208.64C91.2789 208.48 88.9589 208.4 86.7989 208.4C83.6789 208.4 81.6789 208.48 78.8789 208.64V207.28C83.2789 206.72 84.7989 204.8 84.9589 196.96C85.1989 185.12 85.2789 179.04 85.2789 165.68C85.2789 157.92 83.5989 154.96 78.9589 154.4V152.96C80.6389 153.04 82.4789 153.12 84.6389 153.12C86.4789 153.12 88.2389 153.12 89.9989 152.96C97.9189 166.72 105.439 179.84 113.439 193.44C113.519 180.4 113.519 171.36 113.439 163.68C113.359 156.48 112.559 154.56 107.039 154.32V152.96C108.799 153.04 110.959 153.2 114.479 153.2C117.679 153.2 120.559 153.04 122.239 152.96V154.32C117.359 154.56 116.479 156.64 116.319 162.96C116.079 169.84 115.839 188.4 115.839 194.4C115.839 204.8 115.999 207.68 116.079 209.28ZM123.226 208.64V207.28C127.866 206.96 129.306 205.68 129.306 196.96V164.64C129.306 156.24 128.186 154.64 123.226 154.32V152.96C127.466 153.12 132.666 153.28 139.466 153.2C145.706 153.12 149.626 153.12 154.106 152.96C154.906 154.16 155.066 157.36 154.986 160.32L154.826 166.72H153.386C151.866 157.2 149.786 155.04 136.506 155.04C136.426 156.16 136.346 160.24 136.346 163.2V179.2H139.386C148.186 179.2 149.306 177.84 150.106 172.48H151.466V189.36H150.026C149.306 182.8 148.426 181.36 139.306 181.36H136.346V195.04C136.346 204.56 136.586 206.8 143.386 207.2V208.64C140.186 208.48 137.706 208.4 133.306 208.4C128.986 208.4 126.666 208.48 123.226 208.64ZM156.86 208.64V207.28C161.5 206.96 162.94 205.68 162.94 196.96V164.64C162.94 156.24 161.82 154.64 156.86 154.32V152.96C159.9 153.12 166.38 153.2 173.34 153.2C177.98 153.2 182.62 153.12 187.26 152.96C188.14 154.4 188.22 157.36 188.14 160.32L187.98 166.72H186.54C185.18 157.44 183.42 155.04 170.14 155.04C170.06 156.08 169.98 159.6 169.98 162.32V178.8H172.62C181.26 178.8 182.7 177.52 183.5 172.08H184.86V188.96H183.42C182.86 182.24 181.42 180.96 172.7 180.96H169.98V197.28C169.98 205.84 171.1 206.16 177.9 206.16C185.26 206.16 188.54 200.8 189.98 193.04H191.5L191.1 202C190.94 205.76 190.46 207.44 189.42 208.64C184.62 208.48 179.58 208.4 174.86 208.4C167.98 208.4 161.5 208.48 156.86 208.64ZM233.473 209.04C228.033 209.04 224.993 206.96 222.433 203.92C220.673 201.84 218.593 198.08 216.513 193.92C214.433 189.6 213.393 186.96 211.873 183.04C209.873 183.04 208.113 182.96 206.193 182.64V197.04C206.193 206.16 208.033 207.04 212.273 207.28V208.64C209.473 208.48 205.873 208.4 202.513 208.4C199.313 208.4 196.193 208.48 193.073 208.64V207.28C197.713 206.96 199.153 205.68 199.153 196.96V164.64C199.153 156.24 198.033 154.64 193.073 154.32V152.96H210.193C220.113 152.96 228.433 156.8 227.793 168.24C227.473 174 223.873 178.56 218.193 180.8C219.873 184.96 221.793 189.52 224.913 194.96C230.513 204.8 234.513 206.96 238.673 207.28V208.64C237.153 208.96 235.073 209.04 233.473 209.04ZM206.193 181.28C214.913 181.44 220.433 177.84 220.433 168.24C220.433 160.16 216.833 154.64 206.273 154.72C206.193 158.16 206.193 160.32 206.193 163.84V181.28ZM236.863 208.64V207.28C241.503 206.96 242.943 205.68 242.943 196.96V164.64C242.943 156.24 241.823 154.64 236.863 154.32V152.96C239.903 153.12 246.383 153.2 253.343 153.2C257.983 153.2 262.623 153.12 267.263 152.96C268.143 154.4 268.223 157.36 268.143 160.32L267.983 166.72H266.543C265.183 157.44 263.423 155.04 250.143 155.04C250.063 156.08 249.983 159.6 249.983 162.32V178.8H252.623C261.263 178.8 262.703 177.52 263.503 172.08H264.863V188.96H263.423C262.863 182.24 261.423 180.96 252.703 180.96H249.983V197.28C249.983 205.84 251.103 206.16 257.903 206.16C265.263 206.16 268.543 200.8 269.983 193.04H271.503L271.103 202C270.943 205.76 270.463 207.44 269.423 208.64C264.623 208.48 259.583 208.4 254.863 208.4C247.983 208.4 241.503 208.48 236.863 208.64ZM309.876 209.28L308.436 208.96C299.476 193.44 290.516 177.84 281.396 162.32C281.396 175.76 281.396 183.92 281.636 196.8C281.876 205.12 282.836 206.96 287.956 207.28V208.64C285.076 208.48 282.756 208.4 280.596 208.4C277.476 208.4 275.476 208.48 272.676 208.64V207.28C277.076 206.72 278.596 204.8 278.756 196.96C278.996 185.12 279.076 179.04 279.076 165.68C279.076 157.92 277.396 154.96 272.756 154.4V152.96C274.436 153.04 276.276 153.12 278.436 153.12C280.276 153.12 282.036 153.12 283.796 152.96C291.716 166.72 299.236 179.84 307.236 193.44C307.316 180.4 307.316 171.36 307.236 163.68C307.156 156.48 306.356 154.56 300.836 154.32V152.96C302.596 153.04 304.756 153.2 308.276 153.2C311.476 153.2 314.356 153.04 316.036 152.96V154.32C311.156 154.56 310.276 156.64 310.116 162.96C309.876 169.84 309.636 188.4 309.636 194.4C309.636 204.8 309.796 207.68 309.876 209.28ZM337.263 209.6C326.223 209.6 318.223 199.52 318.223 180.8C318.223 162 326.623 152 337.103 152C340.623 152 344.463 152.48 347.983 155.12C349.263 157.36 349.263 161.2 349.183 164.16L349.023 170.24H347.503C346.783 161.44 343.983 154 337.023 154C328.223 154 326.303 164.72 326.303 180.24C326.303 196.72 328.143 207.44 337.423 207.44C343.983 207.44 346.783 201.84 348.143 193.44H349.663L349.423 198C349.183 202.24 348.783 204.4 347.903 206.72C345.103 208.48 341.823 209.6 337.263 209.6ZM352.141 208.64V207.28C356.781 206.96 358.221 205.68 358.221 196.96V164.64C358.221 156.24 357.101 154.64 352.141 154.32V152.96C355.181 153.12 361.661 153.2 368.621 153.2C373.261 153.2 377.901 153.12 382.541 152.96C383.421 154.4 383.501 157.36 383.421 160.32L383.261 166.72H381.821C380.461 157.44 378.701 155.04 365.421 155.04C365.341 156.08 365.261 159.6 365.261 162.32V178.8H367.901C376.541 178.8 377.981 177.52 378.781 172.08H380.141V188.96H378.701C378.141 182.24 376.701 180.96 367.981 180.96H365.261V197.28C365.261 205.84 366.381 206.16 373.181 206.16C380.541 206.16 383.821 200.8 385.261 193.04H386.781L386.381 202C386.221 205.76 385.741 207.44 384.701 208.64C379.901 208.48 374.861 208.4 370.141 208.4C363.261 208.4 356.781 208.48 352.141 208.64ZM-0.00109382 284.64V282.48C9.19891 274.4 20.5589 261.04 20.5589 244.8C20.5589 238.08 18.3989 233.6 12.6389 233.6C8.39891 233.6 5.11891 236.32 2.47891 239.76L1.59891 238.64C2.87891 236.24 5.11891 232.96 6.87891 230.72C9.19891 228.88 11.9989 228 15.3589 228C22.4789 228 27.3589 233.52 27.3589 243.44C27.3589 251.68 23.1989 259.36 18.3189 265.44C14.1589 270.64 10.8789 274.48 6.79891 278.4H18.1589C25.4389 278.4 26.9589 276.24 28.9589 269.92H30.0789C30.0789 269.92 29.5189 274.48 29.1189 276.88C28.6389 280.08 28.0789 283.28 26.7189 284.64C21.4389 284.48 18.2389 284.4 13.0389 284.4C7.59891 284.4 5.43891 284.48 -0.00109382 284.64ZM47.3514 285.6C38.0714 285.6 32.1514 273.2 32.1514 256.72C32.1514 240.24 38.0714 228 47.3514 228C56.6314 228 62.5514 240.32 62.5514 256.72C62.5514 273.2 56.6314 285.6 47.3514 285.6ZM47.3514 283.6C53.0314 283.6 55.0314 273.52 55.0314 256.72C55.0314 239.92 53.0314 229.92 47.3514 229.92C41.5914 229.92 39.5914 239.92 39.5914 256.72C39.5914 273.52 41.5914 283.6 47.3514 283.6ZM62.6583 284.64V282.48C71.8583 274.4 83.2183 261.04 83.2183 244.8C83.2183 238.08 81.0583 233.6 75.2983 233.6C71.0583 233.6 67.7783 236.32 65.1383 239.76L64.2583 238.64C65.5383 236.24 67.7783 232.96 69.5383 230.72C71.8583 228.88 74.6583 228 78.0183 228C85.1383 228 90.0183 233.52 90.0183 243.44C90.0183 251.68 85.8583 259.36 80.9783 265.44C76.8183 270.64 73.5383 274.48 69.4583 278.4H80.8183C88.0983 278.4 89.6183 276.24 91.6183 269.92H92.7383C92.7383 269.92 92.1783 274.48 91.7783 276.88C91.2983 280.08 90.7383 283.28 89.3783 284.64C84.0983 284.48 80.8983 284.4 75.6983 284.4C70.2583 284.4 68.0983 284.48 62.6583 284.64ZM110.491 285.6C99.2108 285.6 95.6908 272.16 96.0108 258.32C96.4108 241.84 104.171 228 116.491 228C118.971 228.32 121.531 228.88 123.931 229.6L123.451 231.04C109.211 229.52 104.331 238.4 103.371 255.36C105.771 254 109.371 252.4 112.491 251.52C122.171 251.04 125.611 258.96 125.451 266.48C125.051 278 118.731 285.6 110.491 285.6ZM110.491 283.6C116.011 283.6 118.571 275.84 118.651 268.88C118.891 261.52 116.891 254.96 109.611 254.96C107.291 255.36 104.891 256.24 103.291 257.12C103.211 258.8 103.131 262.24 103.131 266.08C103.291 273.84 104.171 283.6 110.491 283.6Z" fill="black"/>
</svg>
