<svg width="1123" height="169" viewBox="0 0 1123 169" fill="none" xmlns="http://www.w3.org/2000/svg">
<path d="M1020.7 165.907V161.923C1034.29 160.986 1038.51 157.236 1038.51 131.694V37.0225C1038.51 12.4173 1035.23 7.73061 1020.7 6.79327V2.80957C1029.61 3.27825 1048.59 3.51258 1068.98 3.51258C1082.57 3.51258 1096.16 3.27825 1109.75 2.80957C1112.33 7.0276 1112.56 15.698 1112.33 24.3684L1111.86 43.1151H1107.64C1103.66 15.9323 1098.5 8.90228 1059.6 8.90228C1059.37 11.9486 1059.13 22.2594 1059.13 30.2267V78.4997H1066.87C1092.18 78.4997 1096.39 74.7503 1098.74 58.8156H1102.72V108.26H1098.5C1096.86 88.5761 1092.64 84.8267 1067.1 84.8267H1059.13V132.631C1059.13 157.705 1062.41 158.642 1082.33 158.642C1103.89 158.642 1113.5 142.942 1117.72 120.211H1122.17L1121 146.457C1120.53 157.471 1119.12 162.392 1116.08 165.907C1102.02 165.438 1087.25 165.204 1073.43 165.204C1053.28 165.204 1034.29 165.438 1020.7 165.907Z" fill="black"/>
<path d="M977.139 168.721C944.801 168.721 921.367 139.195 921.367 84.3605C921.367 29.2918 945.972 0 976.67 0C986.981 0 998.229 1.406 1008.54 9.13905C1012.29 15.7004 1012.29 26.9485 1012.05 35.6189L1011.59 53.4283H1007.13C1005.02 27.6515 996.823 5.85836 976.436 5.85836C950.659 5.85836 945.035 37.2592 945.035 82.7202C945.035 130.993 950.425 162.394 977.608 162.394C996.823 162.394 1005.02 145.991 1009.01 121.385H1013.46L1012.76 134.742C1012.05 147.162 1010.88 153.489 1008.31 160.285C1000.1 165.44 990.496 168.721 977.139 168.721Z" fill="black"/>
<path d="M896.911 167.781L892.693 166.844C866.448 121.383 840.202 75.6877 813.488 30.2267C813.488 69.595 813.488 93.4971 814.191 131.225C814.894 155.596 817.706 160.986 832.703 161.923V165.907C824.267 165.438 817.472 165.204 811.145 165.204C802.005 165.204 796.147 165.438 787.945 165.907V161.923C800.834 160.283 805.286 154.659 805.755 131.694C806.458 97.0122 806.692 79.2027 806.692 40.0688C806.692 17.3383 801.771 8.66795 788.18 7.0276V2.80957C793.101 3.0439 798.49 3.27825 804.817 3.27825C810.207 3.27825 815.362 3.27825 820.518 2.80957C843.717 43.1152 865.744 81.5461 889.178 121.383C889.412 83.1864 889.412 56.7066 889.178 34.2104C888.944 13.1203 886.6 7.49626 870.431 6.79327V2.80957C875.587 3.0439 881.914 3.51258 892.224 3.51258C901.598 3.51258 910.034 3.0439 914.955 2.80957V6.79327C900.66 7.49626 898.083 13.589 897.614 32.1014C896.911 52.2542 896.208 106.62 896.208 124.195C896.208 154.659 896.677 163.095 896.911 167.781Z" fill="black"/>
<path d="M683.039 165.907V161.923C696.63 160.986 700.849 157.236 700.849 131.694V37.0225C700.849 12.4173 697.568 7.73061 683.039 6.79327V2.80957C691.944 3.27825 710.925 3.51258 731.312 3.51258C744.903 3.51258 758.495 3.27825 772.086 2.80957C774.664 7.0276 774.898 15.698 774.664 24.3684L774.195 43.1151H769.977C765.994 15.9323 760.838 8.90228 721.939 8.90228C721.704 11.9486 721.47 22.2594 721.47 30.2267V78.4997H729.203C754.511 78.4997 758.729 74.7503 761.073 58.8156H765.056V108.26H760.838C759.198 88.5761 754.98 84.8267 729.437 84.8267H721.47V132.631C721.47 157.705 724.751 158.642 744.669 158.642C766.228 158.642 775.836 142.942 780.054 120.211H784.506L783.334 146.457C782.866 157.471 781.46 162.392 778.413 165.907C764.353 165.438 749.59 165.204 735.764 165.204C715.612 165.204 696.63 165.438 683.039 165.907Z" fill="black"/>
<path d="M673.093 167.078C657.158 167.078 648.254 160.986 640.755 152.081C635.599 145.988 629.507 134.974 623.414 122.789C617.321 110.135 614.275 102.402 609.823 90.9195C603.964 90.9195 598.809 90.6851 593.185 89.7478V131.928C593.185 158.642 598.575 161.22 610.994 161.923V165.907C602.793 165.438 592.247 165.204 582.405 165.204C573.032 165.204 563.893 165.438 554.754 165.907V161.923C568.345 160.986 572.563 157.236 572.563 131.694V37.0225C572.563 12.4173 569.283 7.73061 554.754 6.79327V2.80957H604.902C633.959 2.80957 658.33 14.0576 656.455 47.5675C655.518 64.4396 644.973 77.7967 628.335 84.3581C633.256 96.5435 638.88 109.901 648.019 125.835C664.423 154.659 676.139 160.986 688.325 161.923V165.907C683.872 166.844 677.78 167.078 673.093 167.078ZM593.185 85.7641C618.727 86.2328 634.896 75.6877 634.896 47.5675C634.896 23.8997 624.351 7.73061 593.419 7.96494C593.185 18.0413 593.185 24.3684 593.185 34.6791V85.7641Z" fill="black"/>
<path d="M448.688 165.907V161.923C462.279 160.986 466.497 157.236 466.497 131.694V37.0225C466.497 12.4173 463.216 7.73061 448.688 6.79327V2.80957C457.592 3.27825 476.573 3.51258 496.96 3.51258C510.552 3.51258 524.143 3.27825 537.735 2.80957C540.312 7.0276 540.547 15.698 540.312 24.3684L539.844 43.1151H535.626C531.642 15.9323 526.487 8.90228 487.587 8.90228C487.353 11.9486 487.118 22.2594 487.118 30.2267V78.4997H494.851C520.16 78.4997 524.378 74.7503 526.721 58.8156H530.705V108.26H526.487C524.846 88.5761 520.628 84.8267 495.086 84.8267H487.118V132.631C487.118 157.705 490.399 158.642 510.318 158.642C531.876 158.642 541.484 142.942 545.702 120.211H550.154L548.983 146.457C548.514 157.471 547.108 162.392 544.062 165.907C530.002 165.438 515.239 165.204 501.413 165.204C481.26 165.204 462.279 165.438 448.688 165.907Z" fill="black"/>
<path d="M350.172 165.907V161.923C363.763 160.986 367.981 157.236 367.981 131.694V37.0225C367.981 12.4173 364.701 7.73061 350.172 6.79327V2.80957C362.592 3.27825 377.823 3.74691 397.742 3.51258C416.02 3.27825 427.502 3.27825 440.625 2.80957C442.968 6.32459 443.437 15.698 443.203 24.3684L442.734 43.1151H438.516C434.064 15.2293 427.971 8.90228 389.071 8.90228C388.837 12.183 388.603 24.134 388.603 32.8044V79.6714H397.507C423.284 79.6714 426.565 75.6877 428.908 59.9873H432.892V109.432H428.674C426.565 90.2164 423.987 85.9984 397.273 85.9984H388.603V126.07C388.603 153.955 389.306 160.517 409.224 161.689V165.907C399.851 165.438 392.586 165.204 379.698 165.204C367.044 165.204 360.248 165.438 350.172 165.907Z" fill="black"/>
<path d="M329.231 167.781L325.013 166.844C298.768 121.383 272.522 75.6877 245.808 30.2267C245.808 69.595 245.808 93.4971 246.511 131.225C247.214 155.596 250.026 160.986 265.024 161.923V165.907C256.588 165.438 249.792 165.204 243.465 165.204C234.326 165.204 228.467 165.438 220.266 165.907V161.923C233.154 160.283 237.606 154.659 238.075 131.694C238.778 97.0122 239.012 79.2027 239.012 40.0688C239.012 17.3383 234.091 8.66795 220.5 7.0276V2.80957C225.421 3.0439 230.811 3.27825 237.138 3.27825C242.527 3.27825 247.683 3.27825 252.838 2.80957C276.037 43.1152 298.065 81.5461 321.498 121.383C321.733 83.1864 321.733 56.7066 321.498 34.2104C321.264 13.1203 318.921 7.49626 302.751 6.79327V2.80957C307.907 3.0439 314.234 3.51258 324.545 3.51258C333.918 3.51258 342.354 3.0439 347.275 2.80957V6.79327C332.981 7.49626 330.403 13.589 329.934 32.1014C329.231 52.2542 328.528 106.62 328.528 124.195C328.528 154.659 328.997 163.095 329.231 167.781Z" fill="black"/>
<path d="M157.924 168.721C126.523 168.721 102.855 134.742 102.855 84.1262C102.855 33.5099 126.523 0 157.924 0C189.325 0 213.227 33.7442 213.227 84.1262C213.227 134.742 189.325 168.721 157.924 168.721ZM157.924 162.628C179.717 162.628 189.559 133.336 189.559 84.1262C189.559 34.9159 179.717 6.0927 157.924 6.0927C136.131 6.0927 126.523 34.9159 126.523 84.1262C126.523 133.336 136.131 162.628 157.924 162.628Z" fill="black"/>
<path d="M55.7717 168.721C23.4335 168.721 0 139.195 0 84.3605C0 29.2918 24.6051 0 55.303 0C65.6137 0 76.8618 1.406 87.1725 9.13905C90.9219 15.7004 90.9219 26.9485 90.6876 35.6189L90.2189 53.4283H85.7665C83.6575 27.6515 75.4558 5.85836 55.0687 5.85836C29.2918 5.85836 23.6678 37.2592 23.6678 82.7202C23.6678 130.993 29.0575 162.394 56.2403 162.394C75.4558 162.394 83.6575 145.991 87.6412 121.385H92.0936L91.3906 134.742C90.6876 147.162 89.5159 153.489 86.9382 160.285C78.7365 165.44 69.1287 168.721 55.7717 168.721Z" fill="black"/>
</svg>
