<svg width="652" height="169" viewBox="0 0 652 169" fill="none" xmlns="http://www.w3.org/2000/svg">
<path d="M536.547 165.908V161.924C550.138 160.987 554.356 157.237 554.356 131.695V37.0234C554.356 12.4183 551.076 7.73158 536.547 6.79424V2.81055H583.414C591.381 2.81055 601.692 3.98222 608.722 6.55991C633.093 15.699 651.84 40.5384 651.84 83.656C651.84 127.242 633.093 150.441 615.049 159.815C607.55 163.799 598.88 165.908 585.757 165.908H536.547ZM592.787 160.284C612.94 159.58 628.64 130.523 628.64 85.5307C628.64 52.2552 622.079 27.8844 608.956 16.8706C600.989 10.0749 592.084 7.96591 575.212 7.96591C574.978 14.7616 574.978 17.105 574.978 29.9934V131.929C574.978 156.065 578.258 160.752 592.787 160.284Z" fill="black"/>
<path d="M436.195 165.908V161.924C449.787 160.987 454.005 157.237 454.005 131.695V37.0234C454.005 12.4183 450.724 7.73158 436.195 6.79424V2.81055C445.334 3.27922 454.005 3.51356 463.144 3.51356C472.986 3.51356 484 3.27922 493.607 2.81055V6.79424C479.547 7.96591 474.626 12.4183 474.626 37.0234V127.711C474.626 155.831 476.267 158.643 493.139 158.643C511.651 158.643 522.665 145.989 528.523 120.212H532.976L531.804 146.458C531.101 158.878 529.461 163.096 526.649 165.908C508.136 165.439 509.073 165.205 490.561 165.205C467.83 165.205 458.691 164.97 436.195 165.908Z" fill="black"/>
<path d="M426.257 167.079C410.322 167.079 401.418 160.987 393.919 152.082C388.763 145.989 382.671 134.975 376.578 122.79C370.485 110.136 367.439 102.403 362.987 90.9204C357.128 90.9204 351.973 90.6861 346.349 89.7488V131.929C346.349 158.643 351.739 161.221 364.158 161.924V165.908C355.957 165.439 345.412 165.205 335.569 165.205C326.196 165.205 317.057 165.439 307.918 165.908V161.924C321.509 160.987 325.727 157.237 325.727 131.695V37.0234C325.727 12.4183 322.447 7.73158 307.918 6.79424V2.81055H358.066C387.123 2.81055 411.494 14.0586 409.619 47.5685C408.682 64.4406 398.137 77.7977 381.499 84.3591C386.42 96.5445 392.044 109.902 401.183 125.836C417.587 154.66 429.303 160.987 441.489 161.924V165.908C437.036 166.845 430.944 167.079 426.257 167.079ZM346.349 85.7651C371.891 86.2337 388.06 75.6887 388.06 47.5685C388.06 23.9007 377.515 7.73158 346.583 7.96592C346.349 18.0423 346.349 24.3694 346.349 34.6801V85.7651Z" fill="black"/>
<path d="M244.405 168.721C213.004 168.721 189.336 134.742 189.336 84.1262C189.336 33.5099 213.004 0 244.405 0C275.805 0 299.708 33.7442 299.708 84.1262C299.708 134.742 275.805 168.721 244.405 168.721ZM244.405 162.628C266.198 162.628 276.04 133.336 276.04 84.1262C276.04 34.9159 266.198 6.0927 244.405 6.0927C222.611 6.0927 213.004 34.9159 213.004 84.1262C213.004 133.336 222.611 162.628 244.405 162.628Z" fill="black"/>
<path d="M59.2867 167.314C51.3193 136.616 32.3382 69.3616 23.1991 38.4294C16.8721 16.8706 14.0601 8.43458 0 6.79424V2.81055C8.43605 3.27922 14.0601 3.51356 24.6052 3.51356C34.6815 3.51356 44.5236 3.27922 54.8343 2.81055V6.79424C43.3519 7.96592 38.1966 15.9333 41.9459 30.2277C52.2567 69.596 61.1614 100.997 68.6601 125.836C77.7991 98.6535 86.9382 70.299 95.3743 43.1161C88.5786 18.0423 85.0635 8.90326 71.7064 6.79424V2.81055C81.0798 3.51356 88.8129 3.51356 97.0146 3.51356C105.919 3.51356 114.121 3.27922 124.432 2.81055V6.79424C110.372 8.20025 108.731 16.1676 112.481 30.2277C123.494 70.5333 131.93 101.231 139.195 125.133C146.225 103.106 153.255 78.9694 163.566 37.7264C168.955 16.402 165.675 8.20025 149.974 6.79424V2.81055C156.301 3.27922 164.972 3.51356 173.642 3.51356C181.609 3.51356 187.468 3.51356 195.201 2.81055V6.79424C184.89 8.43458 181.375 13.5899 175.282 32.3367C162.628 71.9393 143.647 133.569 135.211 166.142L130.056 167.314C123.494 141.537 112.012 100.762 98.8893 55.0672C89.9846 81.7814 72.6438 136.381 64.4421 166.142L59.2867 167.314Z" fill="black"/>
</svg>
