<svg width="198" height="167" viewBox="0 0 198 167" fill="none" xmlns="http://www.w3.org/2000/svg">
<path d="M141.648 166.141V162.157C155.24 161.22 159.458 157.471 159.458 131.928V37.2568C159.458 12.6517 156.177 7.96498 141.648 7.02764V3.04395C150.787 3.51262 159.458 3.74695 168.597 3.74695C178.439 3.74695 188.281 3.51262 197.889 3.04395V7.02764C183.829 8.19931 180.079 12.6517 180.079 37.2568V132.162C180.079 158.877 185.469 161.454 197.889 162.157V166.141C189.687 165.672 179.142 165.438 169.3 165.438C159.927 165.438 150.787 165.672 141.648 166.141Z" fill="black"/>
<path d="M0 166.143V162.16C12.6541 160.285 17.1064 152.318 23.1991 136.383C39.3682 93.0309 71.2378 1.17167 71.2378 1.17167L76.3931 0C88.5785 43.5863 100.998 88.1099 113.184 130.056C119.511 152.083 122.088 160.051 135.68 162.16V166.143C127.009 165.675 118.573 165.44 107.56 165.44C94.4369 165.44 89.7502 165.675 81.3142 166.143V162.16C97.2489 160.754 97.4833 154.895 93.4996 138.258C90.2189 124.666 87.1725 113.184 84.3605 102.639H44.0549C44.0549 102.639 38.4309 119.979 35.1502 130.759C27.8858 154.895 29.5262 161.457 47.1013 162.16V166.143C41.0086 165.909 36.3219 165.44 24.8395 165.44C14.2944 165.44 5.85837 165.675 0 166.143ZM46.3983 96.0773H82.7202C77.0961 75.4558 71.9408 57.6464 65.8481 37.0249L46.3983 96.0773Z" fill="black"/>
</svg>
