<svg width="1360" height="577" viewBox="0 0 1360 577" fill="none" xmlns="http://www.w3.org/2000/svg">
<path d="M536.547 165.908V161.924C550.138 160.987 554.356 157.237 554.356 131.695V37.0234C554.356 12.4183 551.076 7.73158 536.547 6.79424V2.81055H583.414C591.381 2.81055 601.692 3.98222 608.722 6.55991C633.093 15.699 651.84 40.5384 651.84 83.656C651.84 127.242 633.093 150.441 615.049 159.815C607.55 163.799 598.88 165.908 585.757 165.908H536.547ZM592.787 160.284C612.94 159.581 628.64 130.523 628.64 85.5307C628.64 52.2552 622.079 27.8844 608.956 16.8706C600.989 10.0749 592.084 7.96591 575.212 7.96591C574.978 14.7616 574.978 17.105 574.978 29.9934V131.929C574.978 156.065 578.258 160.752 592.787 160.284Z" fill="black"/>
<path d="M436.195 165.908V161.924C449.787 160.987 454.005 157.237 454.005 131.695V37.0234C454.005 12.4183 450.724 7.73158 436.195 6.79424V2.81055C445.334 3.27922 454.005 3.51356 463.144 3.51356C472.986 3.51356 484 3.27922 493.607 2.81055V6.79424C479.547 7.96591 474.626 12.4183 474.626 37.0234V127.711C474.626 155.831 476.267 158.643 493.139 158.643C511.651 158.643 522.665 145.989 528.523 120.212H532.976L531.804 146.458C531.101 158.878 529.461 163.096 526.649 165.908C508.136 165.439 509.073 165.205 490.561 165.205C467.83 165.205 458.691 164.97 436.195 165.908Z" fill="black"/>
<path d="M426.257 167.079C410.322 167.079 401.418 160.987 393.919 152.082C388.763 145.989 382.671 134.975 376.578 122.79C370.485 110.136 367.439 102.403 362.987 90.9204C357.128 90.9204 351.973 90.6861 346.349 89.7488V131.929C346.349 158.643 351.739 161.221 364.158 161.924V165.908C355.957 165.439 345.412 165.205 335.569 165.205C326.196 165.205 317.057 165.439 307.918 165.908V161.924C321.509 160.987 325.727 157.237 325.727 131.695V37.0234C325.727 12.4183 322.447 7.73158 307.918 6.79424V2.81055H358.066C387.123 2.81055 411.494 14.0586 409.619 47.5685C408.682 64.4406 398.137 77.7977 381.499 84.3591C386.42 96.5445 392.044 109.902 401.183 125.836C417.587 154.66 429.303 160.987 441.489 161.924V165.908C437.036 166.845 430.944 167.079 426.257 167.079ZM346.349 85.7651C371.891 86.2337 388.06 75.6887 388.06 47.5685C388.06 23.9007 377.515 7.73158 346.583 7.96592C346.349 18.0423 346.349 24.3694 346.349 34.6801V85.7651Z" fill="black"/>
<path d="M244.405 168.721C213.004 168.721 189.336 134.742 189.336 84.1262C189.336 33.5099 213.004 0 244.405 0C275.805 0 299.708 33.7442 299.708 84.1262C299.708 134.742 275.805 168.721 244.405 168.721ZM244.405 162.628C266.198 162.628 276.04 133.336 276.04 84.1262C276.04 34.9159 266.198 6.0927 244.405 6.0927C222.611 6.0927 213.004 34.9159 213.004 84.1262C213.004 133.336 222.611 162.628 244.405 162.628Z" fill="black"/>
<path d="M59.2867 167.314C51.3193 136.616 32.3382 69.3616 23.1991 38.4294C16.8721 16.8706 14.0601 8.43458 0 6.79424V2.81055C8.43605 3.27922 14.0601 3.51356 24.6052 3.51356C34.6815 3.51356 44.5236 3.27922 54.8343 2.81055V6.79424C43.3519 7.96592 38.1966 15.9333 41.9459 30.2277C52.2567 69.596 61.1614 100.997 68.6601 125.836C77.7991 98.6535 86.9382 70.299 95.3743 43.1161C88.5786 18.0423 85.0635 8.90326 71.7065 6.79424V2.81055C81.0798 3.51356 88.8129 3.51356 97.0146 3.51356C105.919 3.51356 114.121 3.27922 124.432 2.81055V6.79424C110.372 8.20025 108.731 16.1676 112.481 30.2277C123.494 70.5333 131.93 101.231 139.195 125.133C146.225 103.106 153.255 78.9694 163.566 37.7264C168.955 16.402 165.675 8.20025 149.974 6.79424V2.81055C156.301 3.27922 164.972 3.51356 173.642 3.51356C181.609 3.51356 187.468 3.51356 195.201 2.81055V6.79424C184.89 8.43458 181.375 13.5899 175.282 32.3367C162.628 71.9393 143.647 133.569 135.211 166.142L130.056 167.314C123.494 141.537 112.012 100.762 98.8893 55.0672C89.9846 81.7814 72.6438 136.381 64.4421 166.142L59.2867 167.314Z" fill="black"/>
<path d="M1258.52 165.908V161.924C1272.11 160.987 1276.33 157.237 1276.33 131.695V37.0234C1276.33 12.4183 1273.04 7.73158 1258.52 6.79424V2.81055C1267.42 3.27922 1286.4 3.51356 1306.79 3.51356C1320.38 3.51356 1333.97 3.27922 1347.56 2.81055C1350.14 7.02857 1350.37 15.699 1350.14 24.3693L1349.67 43.1161H1345.45C1341.47 15.9333 1336.31 8.90326 1297.42 8.90326C1297.18 11.9496 1296.95 22.2603 1296.95 30.2277V78.5007H1304.68C1329.99 78.5007 1334.21 74.7513 1336.55 58.8166H1340.53V108.261H1336.31C1334.67 88.5771 1330.46 84.8277 1304.91 84.8277H1296.95V132.632C1296.95 157.706 1300.23 158.643 1320.15 158.643C1341.7 158.643 1351.31 142.943 1355.53 120.212H1359.98L1358.81 146.458C1358.34 157.471 1356.94 162.393 1353.89 165.908C1339.83 165.439 1325.07 165.205 1311.24 165.205C1291.09 165.205 1272.11 165.439 1258.52 165.908Z" fill="black"/>
<path d="M1135.05 165.908V161.924C1148.65 160.987 1152.86 157.237 1152.86 131.695V37.0234C1152.86 12.4183 1149.58 7.73158 1135.05 6.79424V2.81055H1181.92C1189.89 2.81055 1200.2 3.98222 1207.23 6.55991C1231.6 15.699 1250.35 40.5384 1250.35 83.656C1250.35 127.242 1231.6 150.441 1213.56 159.815C1206.06 163.799 1197.39 165.908 1184.27 165.908H1135.05ZM1191.3 160.284C1211.45 159.581 1227.15 130.523 1227.15 85.5307C1227.15 52.2552 1220.59 27.8844 1207.46 16.8706C1199.5 10.0749 1190.59 7.96591 1173.72 7.96591C1173.49 14.7616 1173.49 17.105 1173.49 29.9934V131.929C1173.49 156.065 1176.77 160.752 1191.3 160.284Z" fill="black"/>
<path d="M1072.96 165.908V161.924C1086.55 160.987 1090.77 157.237 1090.77 131.695V37.0234C1090.77 12.4183 1087.49 7.73158 1072.96 6.79424V2.81055C1082.1 3.27922 1090.77 3.51356 1099.91 3.51356C1109.75 3.51356 1119.59 3.27922 1129.2 2.81055V6.79424C1115.14 7.96591 1111.39 12.4183 1111.39 37.0234V131.929C1111.39 158.643 1116.78 161.221 1129.2 161.924V165.908C1121 165.439 1110.45 165.205 1100.61 165.205C1091.24 165.205 1082.1 165.439 1072.96 165.908Z" fill="black"/>
<path d="M935.857 167.314C927.89 136.616 908.909 69.3616 899.769 38.4294C893.442 16.8706 890.63 8.43458 876.57 6.79424V2.81055C885.006 3.27922 890.63 3.51356 901.175 3.51356C911.252 3.51356 921.094 3.27922 931.405 2.81055V6.79424C919.922 7.96592 914.767 15.9333 918.516 30.2277C928.827 69.596 937.732 100.997 945.23 125.836C954.369 98.6535 963.509 70.299 971.945 43.1161C965.149 18.0423 961.634 8.90326 948.277 6.79424V2.81055C957.65 3.51356 965.383 3.51356 973.585 3.51356C982.49 3.51356 990.691 3.27922 1001 2.81055V6.79424C986.942 8.20025 985.302 16.1676 989.051 30.2277C1000.06 70.5333 1008.5 101.231 1015.77 125.133C1022.8 103.106 1029.83 78.9694 1040.14 37.7264C1045.53 16.402 1042.24 8.20025 1026.54 6.79424V2.81055C1032.87 3.27922 1041.54 3.51356 1050.21 3.51356C1058.18 3.51356 1064.04 3.51356 1071.77 2.81055V6.79424C1061.46 8.43458 1057.95 13.5899 1051.85 32.3367C1039.2 71.9393 1020.22 133.569 1011.78 166.142L1006.63 167.314C1000.06 141.537 988.582 100.762 975.46 55.0672C966.555 81.7814 949.214 136.381 941.012 166.142L935.857 167.314Z" fill="black"/>
<path d="M1258.52 369.705V365.722C1272.11 364.784 1276.33 361.035 1276.33 335.493V240.821C1276.33 216.216 1273.04 211.529 1258.52 210.592V206.608C1267.42 207.077 1286.4 207.311 1306.79 207.311C1320.38 207.311 1333.97 207.077 1347.56 206.608C1350.14 210.826 1350.37 219.497 1350.14 228.167L1349.67 246.914H1345.45C1341.47 219.731 1336.31 212.701 1297.42 212.701C1297.18 215.747 1296.95 226.058 1296.95 234.026V282.299H1304.68C1329.99 282.299 1334.21 278.549 1336.55 262.614H1340.53V312.059H1336.31C1334.67 292.375 1330.46 288.626 1304.91 288.626H1296.95V336.43C1296.95 361.504 1300.23 362.441 1320.15 362.441C1341.7 362.441 1351.31 346.741 1355.53 324.01H1359.98L1358.81 350.256C1358.34 361.269 1356.94 366.19 1353.89 369.705C1339.83 369.237 1325.07 369.002 1311.24 369.002C1291.09 369.002 1272.11 369.237 1258.52 369.705Z" fill="black"/>
<path d="M1214.95 372.52C1182.61 372.52 1159.18 342.994 1159.18 288.159C1159.18 233.091 1183.78 203.799 1214.48 203.799C1224.79 203.799 1236.04 205.205 1246.35 212.938C1250.1 219.499 1250.1 230.747 1249.87 239.418L1249.4 257.227H1244.95C1242.84 231.45 1234.64 209.657 1214.25 209.657C1188.47 209.657 1182.85 241.058 1182.85 286.519C1182.85 334.792 1188.24 366.193 1215.42 366.193C1234.64 366.193 1242.84 349.789 1246.82 325.184H1251.27L1250.57 338.541C1249.87 350.961 1248.7 357.288 1246.12 364.084C1237.92 369.239 1228.31 372.52 1214.95 372.52Z" fill="black"/>
<path d="M1134.72 371.58L1130.51 370.643C1104.26 325.182 1078.01 279.487 1051.3 234.026C1051.3 273.394 1051.3 297.296 1052 335.024C1052.71 359.395 1055.52 364.784 1070.52 365.722V369.705C1062.08 369.237 1055.28 369.002 1048.96 369.002C1039.82 369.002 1033.96 369.237 1025.76 369.705V365.722C1038.65 364.081 1043.1 358.457 1043.57 335.493C1044.27 300.811 1044.5 283.002 1044.5 243.868C1044.5 221.137 1039.58 212.467 1025.99 210.826V206.608C1030.91 206.843 1036.3 207.077 1042.63 207.077C1048.02 207.077 1053.17 207.077 1058.33 206.608C1081.53 246.914 1103.56 285.345 1126.99 325.182C1127.22 286.985 1127.22 260.505 1126.99 238.009C1126.76 216.919 1124.41 211.295 1108.24 210.592V206.608C1113.4 206.843 1119.73 207.311 1130.04 207.311C1139.41 207.311 1147.85 206.843 1152.77 206.608V210.592C1138.47 211.295 1135.9 217.388 1135.43 235.9C1134.72 256.053 1134.02 310.419 1134.02 327.994C1134.02 358.457 1134.49 366.893 1134.72 371.58Z" fill="black"/>
<path d="M920.852 369.705V365.722C934.443 364.784 938.661 361.035 938.661 335.493V240.821C938.661 216.216 935.38 211.529 920.852 210.592V206.608C929.756 207.077 948.737 207.311 969.125 207.311C982.716 207.311 996.307 207.077 1009.9 206.608C1012.48 210.826 1012.71 219.497 1012.48 228.167L1012.01 246.914H1007.79C1003.81 219.731 998.651 212.701 959.751 212.701C959.517 215.747 959.282 226.058 959.282 234.026V282.299H967.016C992.324 282.299 996.542 278.549 998.885 262.614H1002.87V312.059H998.651C997.01 292.375 992.792 288.626 967.25 288.626H959.282V336.43C959.282 361.504 962.563 362.441 982.482 362.441C1004.04 362.441 1013.65 346.741 1017.87 324.01H1022.32L1021.15 350.256C1020.68 361.269 1019.27 366.19 1016.23 369.705C1002.17 369.237 987.403 369.002 973.577 369.002C953.424 369.002 934.443 369.237 920.852 369.705Z" fill="black"/>
<path d="M910.905 370.877C894.971 370.877 886.066 364.784 878.567 355.88C873.412 349.787 867.319 338.773 861.227 326.588C855.134 313.934 852.087 306.201 847.635 294.718C841.777 294.718 836.621 294.484 830.997 293.547V335.727C830.997 362.441 836.387 365.019 848.807 365.722V369.705C840.605 369.237 830.06 369.002 820.218 369.002C810.845 369.002 801.705 369.237 792.566 369.705V365.722C806.158 364.784 810.376 361.035 810.376 335.493V240.821C810.376 216.216 807.095 211.529 792.566 210.592V206.608H842.714C871.772 206.608 896.142 217.856 894.268 251.366C893.33 268.238 882.785 281.596 866.148 288.157C871.069 300.342 876.693 313.699 885.832 329.634C902.235 358.457 913.952 364.784 926.137 365.722V369.705C921.685 370.643 915.592 370.877 910.905 370.877ZM830.997 289.563C856.54 290.032 872.709 279.487 872.709 251.366C872.709 227.699 862.164 211.529 831.232 211.764C830.997 221.84 830.997 228.167 830.997 238.478V289.563Z" fill="black"/>
<path d="M686.5 369.705V365.722C700.091 364.784 704.309 361.035 704.309 335.493V240.821C704.309 216.216 701.029 211.529 686.5 210.592V206.608C695.405 207.077 714.386 207.311 734.773 207.311C748.364 207.311 761.956 207.077 775.547 206.608C778.125 210.826 778.359 219.497 778.125 228.167L777.656 246.914H773.438C769.455 219.731 764.299 212.701 725.4 212.701C725.165 215.747 724.931 226.058 724.931 234.026V282.299H732.664C757.972 282.299 762.19 278.549 764.534 262.614H768.517V312.059H764.299C762.659 292.375 758.441 288.626 732.898 288.626H724.931V336.43C724.931 361.504 728.212 362.441 748.13 362.441C769.689 362.441 779.297 346.741 783.515 324.01H787.967L786.795 350.256C786.327 361.269 784.921 366.19 781.874 369.705C767.814 369.237 753.051 369.002 739.225 369.002C719.073 369.002 700.091 369.237 686.5 369.705Z" fill="black"/>
<path d="M587.984 369.705V365.722C601.576 364.784 605.794 361.035 605.794 335.493V240.821C605.794 216.216 602.513 211.529 587.984 210.592V206.608C600.404 207.077 615.636 207.546 635.554 207.311C653.832 207.077 665.315 207.077 678.438 206.608C680.781 210.123 681.25 219.497 681.015 228.167L680.547 246.914H676.329C671.876 219.028 665.784 212.701 626.884 212.701C626.65 215.982 626.415 227.933 626.415 236.603V283.47H635.32C661.097 283.47 664.377 279.487 666.721 263.786H670.705V313.231H666.486C664.377 294.015 661.8 289.797 635.086 289.797H626.415V329.868C626.415 357.754 627.118 364.316 647.037 365.487V369.705C637.663 369.237 630.399 369.002 617.511 369.002C604.856 369.002 598.061 369.237 587.984 369.705Z" fill="black"/>
<path d="M567.044 371.58L562.826 370.643C536.58 325.182 510.335 279.487 483.621 234.026C483.621 273.394 483.621 297.296 484.324 335.024C485.027 359.395 487.839 364.784 502.836 365.722V369.705C494.4 369.237 487.604 369.002 481.277 369.002C472.138 369.002 466.28 369.237 458.078 369.705V365.722C470.967 364.081 475.419 358.457 475.888 335.493C476.591 300.811 476.825 283.002 476.825 243.868C476.825 221.137 471.904 212.467 458.312 210.826V206.608C463.233 206.843 468.623 207.077 474.95 207.077C480.34 207.077 485.495 207.077 490.651 206.608C513.85 246.914 535.877 285.345 559.311 325.182C559.545 286.985 559.545 260.505 559.311 238.009C559.076 216.919 556.733 211.295 540.564 210.592V206.608C545.719 206.843 552.046 207.311 562.357 207.311C571.731 207.311 580.167 206.843 585.088 206.608V210.592C570.793 211.295 568.215 217.388 567.747 235.9C567.044 256.053 566.341 310.419 566.341 327.994C566.341 358.457 566.809 366.893 567.044 371.58Z" fill="black"/>
<path d="M395.737 372.52C364.336 372.52 340.668 338.541 340.668 287.925C340.668 237.309 364.336 203.799 395.737 203.799C427.138 203.799 451.04 237.543 451.04 287.925C451.04 338.541 427.138 372.52 395.737 372.52ZM395.737 366.427C417.53 366.427 427.372 337.135 427.372 287.925C427.372 238.715 417.53 209.892 395.737 209.892C373.944 209.892 364.336 238.715 364.336 287.925C364.336 337.135 373.944 366.427 395.737 366.427Z" fill="black"/>
<path d="M293.584 372.52C261.246 372.52 237.812 342.994 237.812 288.159C237.812 233.091 262.418 203.799 293.116 203.799C303.426 203.799 314.674 205.205 324.985 212.938C328.734 219.499 328.734 230.747 328.5 239.418L328.031 257.227H323.579C321.47 231.45 313.268 209.657 292.881 209.657C267.104 209.657 261.48 241.058 261.48 286.519C261.48 334.792 266.87 366.193 294.053 366.193C313.268 366.193 321.47 349.789 325.454 325.184H329.906L329.203 338.541C328.5 350.961 327.328 357.288 324.751 364.084C316.549 369.239 306.941 372.52 293.584 372.52Z" fill="black"/>
<path d="M141.648 369.705V365.722C155.24 364.784 159.458 361.035 159.458 335.493V240.821C159.458 216.216 156.177 211.529 141.648 210.592V206.608C150.787 207.077 159.458 207.311 168.597 207.311C178.439 207.311 188.281 207.077 197.889 206.608V210.592C183.829 211.764 180.079 216.216 180.079 240.821V335.727C180.079 362.441 185.469 365.019 197.889 365.722V369.705C189.687 369.237 179.142 369.002 169.3 369.002C159.927 369.002 150.787 369.237 141.648 369.705Z" fill="black"/>
<path d="M0 369.708V365.724C12.6541 363.849 17.1064 355.882 23.1991 339.947C39.3682 296.595 71.2378 204.736 71.2378 204.736L76.3931 203.564C88.5785 247.151 100.998 291.674 113.184 333.62C119.511 355.648 122.088 363.615 135.68 365.724V369.708C127.009 369.239 118.573 369.005 107.56 369.005C94.4369 369.005 89.7502 369.239 81.3142 369.708V365.724C97.2489 364.318 97.4833 358.46 93.4996 341.822C90.2189 328.231 87.1725 316.748 84.3605 306.203H44.0549C44.0549 306.203 38.4309 323.544 35.1502 334.323C27.8858 358.46 29.5262 365.021 47.1013 365.724V369.708C41.0086 369.473 36.3219 369.005 24.8395 369.005C14.2944 369.005 5.85837 369.239 0 369.708ZM46.3983 299.642H82.7202C77.0961 279.02 71.9408 261.211 65.8481 240.589L46.3983 299.642Z" fill="black"/>
<path d="M323.664 576.318C290.623 576.318 280.312 536.949 281.249 496.41C282.421 448.137 305.151 407.597 341.239 407.597C348.503 408.534 356.002 410.174 363.032 412.283L361.626 416.501C319.914 412.049 305.62 438.06 302.808 487.739C309.838 483.755 320.383 479.069 329.522 476.491C357.877 475.085 367.953 498.284 367.484 520.312C366.313 554.056 347.8 576.318 323.664 576.318ZM323.664 570.459C339.833 570.459 347.332 547.729 347.566 527.342C348.269 505.783 342.411 486.567 321.086 486.567C314.29 487.739 307.26 490.317 302.574 492.895C302.339 497.816 302.105 507.892 302.105 519.14C302.574 541.87 305.151 570.459 323.664 570.459Z" fill="black"/>
<path d="M183.539 573.506V567.179C210.488 543.511 243.763 504.377 243.763 456.807C243.763 437.123 237.436 424 220.564 424C208.144 424 198.536 431.967 190.803 442.044L188.226 438.763C191.975 431.733 198.536 422.125 203.692 415.564C210.488 410.174 218.689 407.597 228.531 407.597C249.387 407.597 263.682 423.766 263.682 452.823C263.682 476.96 251.496 499.456 237.202 517.265C225.016 532.497 215.409 543.745 203.458 555.228H236.733C258.058 555.228 262.51 548.901 268.368 530.388H271.649C271.649 530.388 270.009 543.745 268.837 550.775C267.431 560.149 265.791 569.522 261.807 573.506C246.341 573.037 236.967 572.803 221.736 572.803C205.801 572.803 199.474 573.037 183.539 573.506Z" fill="black"/>
<path d="M138.688 576.318C111.505 576.318 94.1641 539.996 94.1641 491.723C94.1641 443.45 111.505 407.597 138.688 407.597C165.871 407.597 183.211 443.684 183.211 491.723C183.211 539.996 165.871 576.318 138.688 576.318ZM138.688 570.459C155.325 570.459 161.184 540.933 161.184 491.723C161.184 442.513 155.325 413.221 138.688 413.221C121.816 413.221 115.957 442.513 115.957 491.723C115.957 540.933 121.816 570.459 138.688 570.459Z" fill="black"/>
<path d="M0 573.506V567.179C26.9485 543.511 60.224 504.377 60.224 456.807C60.224 437.123 53.897 424 37.0249 424C24.6052 424 14.9974 431.967 7.26438 442.044L4.6867 438.763C8.43605 431.733 14.9974 422.125 20.1528 415.564C26.9485 410.174 35.1502 407.597 44.9923 407.597C65.8481 407.597 80.1425 423.766 80.1425 452.823C80.1425 476.96 67.9571 499.456 53.6627 517.265C41.4773 532.497 31.8695 543.745 19.9185 555.228H53.194C74.5185 555.228 78.9708 548.901 84.8292 530.388H88.1099C88.1099 530.388 86.4695 543.745 85.2979 550.775C83.8919 560.149 82.2515 569.522 78.2678 573.506C62.8017 573.037 53.4283 572.803 38.1966 572.803C22.2618 572.803 15.9348 573.037 0 573.506Z" fill="black"/>
</svg>
