<svg width="484" height="165" viewBox="0 0 484 165" fill="none" xmlns="http://www.w3.org/2000/svg">
<path d="M381.945 163.097V159.113C395.537 158.176 399.755 154.427 399.755 128.884V34.2129C399.755 9.60773 396.474 4.92104 381.945 3.9837V0C390.85 0.468677 409.831 0.703009 430.218 0.703009C443.81 0.703009 457.401 0.468677 470.993 0C473.57 4.21803 473.805 12.8884 473.57 21.5588L473.102 40.3056H468.884C464.9 13.1227 459.744 6.09271 420.845 6.09271C420.611 9.13906 420.376 19.4498 420.376 27.4172V75.6901H428.109C453.417 75.6901 457.635 71.9408 459.979 56.006H463.962V105.451H459.744C458.104 85.7665 453.886 82.0172 428.344 82.0172H420.376V129.821C420.376 154.895 423.657 155.833 443.575 155.833C465.134 155.833 474.742 140.132 478.96 117.402H483.412L482.241 143.647C481.772 154.661 480.366 159.582 477.32 163.097C463.26 162.628 448.496 162.394 434.671 162.394C414.518 162.394 395.537 162.628 381.945 163.097Z" fill="black"/>
<path d="M258.484 163.097V159.113C272.076 158.176 276.294 154.427 276.294 128.884V34.2129C276.294 9.60773 273.013 4.92104 258.484 3.9837V0H305.351C313.319 0 323.629 1.17167 330.659 3.74936C355.03 12.8884 373.777 37.7279 373.777 80.8455C373.777 124.432 355.03 147.631 336.987 157.004C329.488 160.988 320.817 163.097 307.695 163.097H258.484ZM314.725 157.473C334.878 156.77 350.578 127.712 350.578 82.7202C350.578 49.4446 344.017 25.0738 330.894 14.0601C322.926 7.26438 314.022 5.15537 297.15 5.15537C296.915 11.9511 296.915 14.2944 296.915 27.1828V129.118C296.915 153.255 300.196 157.942 314.725 157.473Z" fill="black"/>
<path d="M196.391 163.097V159.113C209.982 158.176 214.2 154.427 214.2 128.884V34.2129C214.2 9.60773 210.919 4.92104 196.391 3.9837V0C205.53 0.468677 214.2 0.703009 223.339 0.703009C233.181 0.703009 243.023 0.468677 252.631 0V3.9837C238.571 5.15537 234.822 9.60773 234.822 34.2129V129.118C234.822 155.833 240.211 158.41 252.631 159.113V163.097C244.429 162.628 233.884 162.394 224.042 162.394C214.669 162.394 205.53 162.628 196.391 163.097Z" fill="black"/>
<path d="M59.2867 164.503C51.3193 133.805 32.3382 66.5511 23.1991 35.6189C16.8721 14.0601 14.0601 5.62403 0 3.9837V0C8.43605 0.468677 14.0601 0.703009 24.6052 0.703009C34.6815 0.703009 44.5236 0.468677 54.8343 0V3.9837C43.3519 5.15537 38.1966 13.1227 41.9459 27.4172C52.2567 66.7854 61.1614 98.1863 68.6601 123.026C77.7991 95.8429 86.9382 67.4884 95.3743 40.3056C88.5786 15.2318 85.0635 6.09271 71.7064 3.9837V0C81.0798 0.703009 88.8129 0.703009 97.0146 0.703009C105.919 0.703009 114.121 0.468677 124.432 0V3.9837C110.372 5.3897 108.731 13.3571 112.481 27.4172C123.494 67.7228 131.93 98.4206 139.195 122.323C146.225 100.295 153.255 76.1588 163.566 34.9159C168.955 13.5914 165.675 5.3897 149.974 3.9837V0C156.301 0.468677 164.972 0.703009 173.642 0.703009C181.609 0.703009 187.468 0.703009 195.201 0V3.9837C184.89 5.62403 181.375 10.7794 175.282 29.5262C162.628 69.1288 143.647 130.759 135.211 163.331L130.056 164.503C123.494 138.726 112.012 97.9519 98.8893 52.2567C89.9846 78.9708 72.6438 133.571 64.4421 163.331L59.2867 164.503Z" fill="black"/>
</svg>
