<svg width="234" height="34" viewBox="0 0 234 34" fill="none" xmlns="http://www.w3.org/2000/svg">
<path fill-rule="evenodd" clip-rule="evenodd" d="M169.319 1.52401C170.71 0.132672 172.966 0.132662 174.357 1.52401L183.16 10.3272C184.551 11.7186 184.552 13.9745 183.16 15.3659L182.861 15.6647C182.125 16.4013 182.125 17.5956 182.861 18.3322L183.16 18.631C184.551 20.0223 184.552 22.2782 183.16 23.6697L174.357 32.4727C172.966 33.864 170.71 33.8641 169.319 32.4729L169.02 32.1739C168.283 31.4374 167.089 31.4373 166.352 32.1739L166.053 32.4729C164.662 33.8643 162.406 33.8643 161.014 32.4729L152.211 23.6697C150.82 22.2783 150.82 20.0224 152.211 18.631L152.51 18.332C153.247 17.5954 153.247 16.4011 152.51 15.6645L152.212 15.3655C150.82 13.9741 150.82 11.7184 152.212 10.327L161.014 1.52401C162.406 0.132623 164.662 0.132623 166.053 1.52401L166.352 1.82298C167.089 2.55953 168.283 2.55956 169.02 1.82298L169.319 1.52401ZM169.27 4.43896C168.253 4.04718 167.119 4.04727 166.102 4.43896C165.807 4.55256 165.553 4.74812 165.329 4.9717L155.657 14.6444C155.433 14.8679 155.238 15.1217 155.124 15.4166C154.729 16.4418 154.732 17.585 155.133 18.6084C155.247 18.8987 155.44 19.1485 155.66 19.3689L165.318 29.0263C165.538 29.2467 165.788 29.44 166.078 29.5537C167.11 29.9576 168.262 29.9575 169.294 29.5535C169.584 29.4398 169.834 29.2465 170.054 29.0261L179.711 19.3689C179.932 19.1485 180.125 18.8987 180.239 18.6084C180.64 17.585 180.642 16.4418 180.248 15.4166C180.134 15.1216 179.938 14.8679 179.715 14.6444L170.042 4.9717C169.819 4.74818 169.565 4.55256 169.27 4.43896Z" fill="black"/>
<path fill-rule="evenodd" clip-rule="evenodd" d="M134.039 11.2579L133.039 12.2577C130.42 14.8769 130.42 19.1234 133.039 21.7425L134.039 22.7421L122.781 33.9998L121.781 32.9997C119.162 30.3808 114.916 30.3809 112.297 32.9999L111.297 34L100.039 22.7421L101.039 21.742C103.658 19.123 103.658 14.8766 101.039 12.2575L100.039 11.2575L111.297 0L112.297 1.00006C114.916 3.61912 119.162 3.61911 121.781 1.00006L122.781 0L134.039 11.2579ZM117.039 4.79489C110.297 4.79494 104.832 10.2602 104.832 17.0019C104.832 23.7437 110.297 29.2091 117.039 29.2092C123.781 29.2092 129.246 23.7437 129.246 17.0019C129.246 10.2601 123.781 4.79489 117.039 4.79489Z" fill="black"/>
<path d="M21.9883 0.539063C22.7988 0.539139 23.5763 0.861451 24.1494 1.43457L32.0303 9.31445C32.6035 9.88766 32.9248 10.6659 32.9248 11.4766V22.5273C32.9247 23.3378 32.6033 24.1154 32.0303 24.6885L24.1494 32.5693C23.5763 33.1424 22.7988 33.4638 21.9883 33.4639H10.9375C10.1271 33.4639 9.34952 33.1422 8.77637 32.5693L0.895508 24.6885C0.322355 24.1153 4.34911e-05 23.3379 0 22.5273V11.4766C7.08713e-06 10.666 0.322416 9.88861 0.895508 9.31543L8.77539 1.43457C9.34859 0.861376 10.1269 0.539058 10.9375 0.539063H21.9883ZM16.4609 2.30566C15.7028 2.30566 14.9757 2.60663 14.4395 3.14258L2.59863 14.9834C2.0624 15.5196 1.76075 16.2475 1.76074 17.0059C1.7608 17.7642 2.06244 18.4911 2.59863 19.0273L8.51855 24.9482L14.4395 30.8682C14.9757 31.4043 15.7026 31.706 16.4609 31.7061C17.2192 31.7061 17.9462 31.4043 18.4824 30.8682L24.4033 24.9482L30.3232 19.0273C30.8594 18.4912 31.1611 17.7641 31.1611 17.0059C31.1611 16.2475 30.8595 15.5196 30.3232 14.9834L18.4824 3.14258C17.9462 2.60659 17.2191 2.30567 16.4609 2.30566Z" fill="black"/>
<path fill-rule="evenodd" clip-rule="evenodd" d="M217.399 3.78765C223.179 0.501037 228.762 -0.100872 231.631 2.76799C234.5 5.63689 233.898 11.2197 230.611 17.0003C233.898 22.7809 234.5 28.3637 231.631 31.2326C228.762 34.1015 223.179 33.4993 217.399 30.2127C211.618 33.4993 206.035 34.1014 203.166 31.2326C200.298 28.3637 200.9 22.7809 204.186 17.0003C200.899 11.2197 200.298 5.63686 203.166 2.76799C206.035 -0.100885 211.618 0.501044 217.399 3.78765ZM210.387 5.58683C207.956 5.58683 205.985 7.55723 205.985 9.98792V24.0122C205.985 26.4429 207.956 28.4133 210.387 28.4133H224.411C226.842 28.4133 228.812 26.4429 228.812 24.0122V9.98792C228.812 7.55725 226.842 5.58686 224.411 5.58683H210.387Z" fill="black"/>
<path fill-rule="evenodd" clip-rule="evenodd" d="M66.9172 3.30718C70.5767 -0.352393 76.5103 -0.352393 80.1699 3.30718C83.8294 6.96676 83.8292 12.9001 80.1696 16.5597L79.7349 16.9942L80.1696 17.4289C83.8292 21.0884 83.8292 27.0218 80.1696 30.6814C76.5101 34.3409 70.5767 34.3409 66.9172 30.6814L66.4824 30.2466L66.0479 30.6816C62.3884 34.3411 56.455 34.3411 52.7955 30.6816C49.1359 27.022 49.1359 21.0887 52.7955 17.4291L53.23 16.9942L52.7955 16.5597C49.1359 12.9001 49.1359 6.96675 52.7955 3.30718C56.455 -0.352369 62.3884 -0.352385 66.0479 3.30718L66.4824 3.74168L66.9172 3.30718ZM59.1624 5.27555C56.7317 5.27555 54.7613 7.24615 54.7613 9.67685V24.3172C54.7613 26.7479 56.7317 28.7183 59.1624 28.7183H73.8027C76.2334 28.7183 78.204 26.7479 78.204 24.3172V9.67685C78.204 7.24615 76.2334 5.27555 73.8027 5.27555H59.1624Z" fill="black"/>
</svg>
