<svg width="172" height="24" viewBox="0 0 172 24" fill="none" xmlns="http://www.w3.org/2000/svg">
<path d="M77.8246 23.9998C73.231 23.9998 69.9023 19.8057 69.9023 12.0165C69.9023 4.19407 73.3975 0.0332031 77.7581 0.0332031C79.2227 0.0332031 80.8205 0.232924 82.2851 1.33139C82.8177 2.26343 82.8177 3.8612 82.7844 5.09282L82.7178 7.62263H82.0854C81.7858 3.96107 80.6208 0.865377 77.7248 0.865377C74.0632 0.865377 73.2643 5.32583 73.2643 11.7835C73.2643 18.6406 74.0299 23.1011 77.8912 23.1011C80.6208 23.1011 81.7858 20.771 82.3517 17.2759H82.9841L82.8843 19.1732C82.7844 20.9374 82.618 21.8362 82.2518 22.8015C81.0868 23.5338 79.722 23.9998 77.8246 23.9998Z" fill="#FFFDF2" style="mix-blend-mode:overlay"/>
<path d="M50.7812 23.6005V23.0346C52.5787 22.7683 53.2112 21.6365 54.0767 19.373C56.3735 13.2149 60.9005 0.166435 60.9005 0.166435L61.6328 0C63.3637 6.19138 65.1279 12.5159 66.8589 18.4743C67.7576 21.6032 68.1238 22.735 70.0544 23.0346V23.6005C68.8228 23.5339 67.6245 23.5006 66.06 23.5006C64.1959 23.5006 63.5302 23.5339 62.3318 23.6005V23.0346C64.5953 22.8349 64.6286 22.0027 64.0627 19.6393C63.5967 17.7087 63.164 16.0776 62.7646 14.5797H57.0392C57.0392 14.5797 56.2403 17.0429 55.7743 18.5741C54.7424 22.0027 54.9754 22.9347 57.4719 23.0346V23.6005C56.6065 23.5672 55.9407 23.5006 54.3097 23.5006C52.8118 23.5006 51.6134 23.5339 50.7812 23.6005ZM57.3721 13.6477H62.5316C61.7327 10.7184 61.0004 8.1886 60.1349 5.25934L57.3721 13.6477Z" fill="#FFFDF2" style="mix-blend-mode:overlay"/>
<path d="M35.4841 23.8001C34.3523 19.4395 31.6561 9.88612 30.3579 5.49224C29.4592 2.42984 29.0597 1.2315 27.0625 0.998496V0.432617C28.2608 0.499192 29.0597 0.532479 30.5576 0.532479C31.989 0.532479 33.387 0.499192 34.8517 0.432617V0.998496C33.2206 1.16493 32.4883 2.29669 33.0209 4.32719C34.4855 9.9194 35.7504 14.3799 36.8156 17.9083C38.1138 14.047 39.412 10.0193 40.6103 6.15798C39.645 2.59627 39.1457 1.29808 37.2483 0.998496V0.432617C38.5798 0.532479 39.6783 0.532479 40.8433 0.532479C42.1082 0.532479 43.2733 0.499192 44.7379 0.432617V0.998496C42.7407 1.19822 42.5077 2.32997 43.0402 4.32719C44.6047 10.0526 45.8031 14.4131 46.835 17.8084C47.8336 14.6794 48.8322 11.2509 50.2968 5.39238C51.0624 2.36326 50.5964 1.19822 48.3662 0.998496V0.432617C49.2649 0.499192 50.4965 0.532479 51.7281 0.532479C52.8599 0.532479 53.6921 0.532479 54.7905 0.432617V0.998496C53.3259 1.2315 52.8266 1.96382 51.9612 4.62678C50.1637 10.2523 47.4674 19.0067 46.2691 23.6336L45.5368 23.8001C44.6047 20.1385 42.9737 14.3466 41.1096 7.85561C39.8447 11.6503 37.3815 19.4062 36.2164 23.6336L35.4841 23.8001Z" fill="#FFFDF2" style="mix-blend-mode:overlay"/>
<path d="M8.4216 23.8001C7.28985 19.4395 4.5936 9.88612 3.29541 5.49224C2.39666 2.42984 1.99722 1.2315 0 0.998496V0.432617C1.19833 0.499192 1.99722 0.532479 3.49513 0.532479C4.92647 0.532479 6.32453 0.499192 7.78915 0.432617V0.998496C6.15809 1.16493 5.42578 2.29669 5.95837 4.32719C7.423 9.9194 8.6879 14.3799 9.75308 17.9083C11.0513 14.047 12.3495 10.0193 13.5478 6.15798C12.5825 2.59627 12.0832 1.29808 10.1858 0.998496V0.432617C11.5173 0.532479 12.6158 0.532479 13.7808 0.532479C15.0457 0.532479 16.2108 0.499192 17.6754 0.432617V0.998496C15.6782 1.19822 15.4452 2.32997 15.9777 4.32719C17.5422 10.0526 18.7406 14.4131 19.7725 17.8084C20.7711 14.6794 21.7697 11.2509 23.2343 5.39238C23.9999 2.36326 23.5339 1.19822 21.3037 0.998496V0.432617C22.2024 0.499192 23.434 0.532479 24.6656 0.532479C25.7974 0.532479 26.6296 0.532479 27.728 0.432617V0.998496C26.2634 1.2315 25.7641 1.96382 24.8987 4.62678C23.1012 10.2523 20.4049 19.0067 19.2066 23.6336L18.4743 23.8001C17.5422 20.1385 15.9112 14.3466 14.0471 7.85561C12.7822 11.6503 10.319 19.4062 9.15392 23.6336L8.4216 23.8001Z" fill="#FFFDF2" style="mix-blend-mode:overlay"/>
<path fill-rule="evenodd" clip-rule="evenodd" d="M164.845 23.3695C164.442 23.7732 163.894 24 163.323 24L155.539 24C154.968 24 154.421 23.7731 154.017 23.3694L152.79 22.1423C152.386 21.7386 152.159 21.191 152.159 20.6201L152.16 19.6766H151.216C150.645 19.6766 150.097 19.4497 149.694 19.046L148.466 17.8189C148.063 17.4152 147.836 16.8676 147.836 16.2966L147.836 8.51303C147.836 7.94208 148.063 7.39449 148.467 6.99077L149.694 5.76366C150.097 5.35993 150.645 5.13311 151.216 5.13311L152.159 5.13311L152.159 4.18949C152.159 3.61853 152.386 3.07096 152.79 2.66723L154.017 1.44012C154.421 1.0364 154.968 0.809568 155.539 0.80957L163.323 0.80963C163.894 0.809635 164.441 1.03646 164.845 1.44018L166.072 2.66729C166.476 3.07102 166.703 3.61859 166.703 4.18955L166.703 5.13305L167.646 5.13305C168.217 5.13305 168.765 5.35987 169.169 5.7636L170.396 6.99071C170.8 7.39444 171.026 7.94201 171.026 8.51297L171.026 16.2966C171.026 16.8675 170.8 17.4151 170.396 17.8188L169.169 19.046C168.765 19.4497 168.217 19.6765 167.646 19.6765H166.703L166.703 20.6201C166.703 21.1911 166.476 21.7387 166.072 22.1424L164.845 23.3695ZM165.779 17.8538C165.779 17.3098 165.995 16.7881 166.38 16.4035L168.985 13.7982C169.355 13.4287 169.562 12.9274 169.562 12.4048C169.562 11.8821 169.355 11.3809 168.985 11.0113L166.38 8.40617C165.995 8.02152 165.779 7.49977 165.779 6.95579L165.779 6.05688H164.88C164.336 6.05687 163.815 5.84081 163.43 5.45618L160.825 2.85093C160.455 2.48137 159.954 2.27376 159.431 2.27375C158.909 2.27375 158.407 2.48136 158.038 2.85093L155.432 5.45607C155.048 5.84072 154.526 6.05682 153.982 6.05682H153.083L153.083 6.95585C153.083 7.4998 152.867 8.02148 152.483 8.40611L149.877 11.0114C149.508 11.3809 149.3 11.8822 149.3 12.4048C149.3 12.9275 149.508 13.4287 149.877 13.7983L152.482 16.4034C152.867 16.7881 153.083 17.3098 153.083 17.8538L153.083 18.7527H153.982C154.526 18.7527 155.048 18.9688 155.432 19.3534L158.038 21.9587C158.407 22.3282 158.909 22.5358 159.431 22.5359C159.954 22.5359 160.455 22.3282 160.825 21.9586L163.43 19.3535C163.814 18.9688 164.336 18.7528 164.88 18.7528L165.779 18.7528L165.779 17.8538Z" fill="#FFFDF2" style="mix-blend-mode:overlay"/>
<path d="M135.283 23.9998C130.59 23.9998 129.125 18.4076 129.258 12.649C129.425 5.79185 132.653 0.0332031 137.78 0.0332031C138.812 0.166349 139.877 0.399359 140.875 0.698942L140.676 1.29811C134.751 0.665655 132.72 4.36051 132.321 11.4173C133.319 10.8515 134.817 10.1857 136.115 9.81957C140.143 9.61985 141.574 12.9153 141.508 16.0442C141.341 20.8376 138.712 23.9998 135.283 23.9998ZM135.283 23.1676C137.58 23.1676 138.645 19.9388 138.678 17.0428C138.778 13.9804 137.946 11.2509 134.917 11.2509C133.952 11.4173 132.953 11.7835 132.287 12.1497C132.254 12.8487 132.221 14.28 132.221 15.8778C132.287 19.1066 132.653 23.1676 135.283 23.1676Z" fill="#FFFDF2" style="mix-blend-mode:overlay"/>
<path d="M115.375 23.6004V22.7016C119.203 19.3396 123.93 13.7807 123.93 7.02347C123.93 4.22736 123.031 2.36329 120.634 2.36329C118.87 2.36329 117.505 3.49505 116.407 4.92639L116.041 4.46037C116.573 3.46176 117.505 2.09699 118.238 1.16496C119.203 0.399359 120.368 0.0332031 121.766 0.0332031C124.729 0.0332031 126.759 2.33 126.759 6.45759C126.759 9.88615 125.028 13.0817 122.998 15.6115C121.267 17.7752 119.902 19.3729 118.204 21.004H122.931C125.96 21.004 126.593 20.1052 127.425 17.4756H127.891C127.891 17.4756 127.658 19.3729 127.491 20.3715C127.292 21.703 127.059 23.0345 126.493 23.6004C124.296 23.5338 122.964 23.5005 120.801 23.5005C118.537 23.5005 117.639 23.5338 115.375 23.6004Z" fill="#FFFDF2" style="mix-blend-mode:overlay"/>
<path d="M109.008 23.9998C105.147 23.9998 102.684 18.8403 102.684 11.9832C102.684 5.12611 105.147 0.0332031 109.008 0.0332031C112.869 0.0332031 115.333 5.1594 115.333 11.9832C115.333 18.8403 112.869 23.9998 109.008 23.9998ZM109.008 23.1676C111.371 23.1676 112.204 18.9735 112.204 11.9832C112.204 4.99296 111.371 0.83209 109.008 0.83209C106.611 0.83209 105.779 4.99296 105.779 11.9832C105.779 18.9735 106.611 23.1676 109.008 23.1676Z" fill="#FFFDF2" style="mix-blend-mode:overlay"/>
<path d="M89.3086 23.6004V22.7016C93.1366 19.3396 97.8633 13.7807 97.8633 7.02347C97.8633 4.22736 96.9646 2.36329 94.5679 2.36329C92.8037 2.36329 91.439 3.49505 90.3405 4.92639L89.9743 4.46037C90.5069 3.46176 91.439 2.09699 92.1713 1.16496C93.1366 0.399359 94.3016 0.0332031 95.6997 0.0332031C98.6622 0.0332031 100.693 2.33 100.693 6.45759C100.693 9.88615 98.9618 13.0817 96.9313 15.6115C95.2004 17.7752 93.8356 19.3729 92.138 21.004H96.8647C99.8939 21.004 100.526 20.1052 101.358 17.4756H101.824C101.824 17.4756 101.591 19.3729 101.425 20.3715C101.225 21.703 100.992 23.0345 100.426 23.6004C98.2295 23.5338 96.898 23.5005 94.7344 23.5005C92.4709 23.5005 91.5721 23.5338 89.3086 23.6004Z" fill="#FFFDF2" style="mix-blend-mode:overlay"/>
</svg>
