<svg width="30" height="19" viewBox="0 0 30 19" fill="none" xmlns="http://www.w3.org/2000/svg">
<path d="M0.09375 10L0.8125 9.28125L6.8125 3.28125L7.5 2.59375L8.9375 4L8.21875 4.71875L2.9375 10L8.21875 15.2812L8.9375 16L7.5 17.4062L6.8125 16.7188L0.8125 10.7188L0.09375 10Z" fill="#FFFDF2"/>
<path d="M10.0938 10L10.8125 9.28125L16.8125 3.28125L17.5 2.59375L18.9375 4L18.2188 4.71875L12.9375 10L18.2188 15.2812L18.9375 16L17.5 17.4062L16.8125 16.7188L10.8125 10.7188L10.0938 10Z" fill="#FFFDF2" fill-opacity="0.6"/>
<path d="M20.0938 10L20.8125 9.28125L26.8125 3.28125L27.5 2.59375L28.9375 4L28.2188 4.71875L22.9375 10L28.2188 15.2812L28.9375 16L27.5 17.4062L26.8125 16.7188L20.8125 10.7188L20.0938 10Z" fill="#FFFDF2" fill-opacity="0.3"/>
</svg>
