<svg width="30" height="19" viewBox="0 0 30 19" fill="none" xmlns="http://www.w3.org/2000/svg">
<path d="M29.9062 10L29.1875 9.28125L23.1875 3.28125L22.5 2.59375L21.0625 4L21.7812 4.71875L27.0625 10L21.7812 15.2812L21.0625 16L22.5 17.4062L23.1875 16.7188L29.1875 10.7188L29.9062 10Z" fill="#FFFDF2"/>
<path d="M19.9062 10L19.1875 9.28125L13.1875 3.28125L12.5 2.59375L11.0625 4L11.7812 4.71875L17.0625 10L11.7812 15.2812L11.0625 16L12.5 17.4062L13.1875 16.7188L19.1875 10.7188L19.9062 10Z" fill="#FFFDF2" fill-opacity="0.6"/>
<path d="M9.90625 10L9.1875 9.28125L3.1875 3.28125L2.5 2.59375L1.0625 4L1.78125 4.71875L7.0625 10L1.78125 15.2812L1.0625 16L2.5 17.4062L3.1875 16.7188L9.1875 10.7188L9.90625 10Z" fill="#FFFDF2" fill-opacity="0.3"/>
</svg>
